<?xml version="1.0" encoding="UTF-8" standalone="no"?>
<svg xmlns:svg="http://www.w3.org/2000/svg"
xmlns="http://www.w3.org/2000/svg" version="1.1"
width="360" height="185">
<!-- Created with the Wikimedia parliament diagram creator (http://tools.wmflabs.org/parliamentdiagram/parliamentinputform.html) -->
<g>
<text x="175" y="175" style="font-size:36px;font-weight:bold;text-align:center;text-anchor:middle;font-family:Sans">332</text>
  <g style="fill:#105CB2" id="Socialist-Democratic">
    <circle cx="10.05" cy="176.00" r="4.00"/>
    <circle cx="20.05" cy="176.00" r="4.00"/>
    <circle cx="30.05" cy="176.00" r="4.00"/>
    <circle cx="40.06" cy="176.00" r="4.00"/>
    <circle cx="50.06" cy="176.00" r="4.00"/>
    <circle cx="60.07" cy="176.00" r="4.00"/>
    <circle cx="70.07" cy="176.00" r="4.00"/>
    <circle cx="80.08" cy="176.00" r="4.00"/>
    <circle cx="90.09" cy="176.00" r="4.00"/>
    <circle cx="100.10" cy="176.00" r="4.00"/>
    <circle cx="10.72" cy="164.33" r="4.00"/>
    <circle cx="20.78" cy="164.25" r="4.00"/>
    <circle cx="30.84" cy="164.15" r="4.00"/>
    <circle cx="40.91" cy="164.04" r="4.00"/>
    <circle cx="51.00" cy="163.91" r="4.00"/>
    <circle cx="61.05" cy="164.14" r="4.00"/>
    <circle cx="71.17" cy="164.00" r="4.00"/>
    <circle cx="12.20" cy="152.74" r="4.00"/>
    <circle cx="81.32" cy="163.83" r="4.00"/>
    <circle cx="22.37" cy="152.58" r="4.00"/>
    <circle cx="91.41" cy="164.14" r="4.00"/>
    <circle cx="32.56" cy="152.40" r="4.00"/>
    <circle cx="42.79" cy="152.20" r="4.00"/>
    <circle cx="101.63" cy="163.94" r="4.00"/>
    <circle cx="53.06" cy="151.96" r="4.00"/>
    <circle cx="14.47" cy="141.27" r="4.00"/>
    <circle cx="63.21" cy="152.44" r="4.00"/>
    <circle cx="24.81" cy="141.06" r="4.00"/>
    <circle cx="73.57" cy="152.19" r="4.00"/>
    <circle cx="35.21" cy="140.83" r="4.00"/>
    <circle cx="84.03" cy="151.89" r="4.00"/>
    <circle cx="45.67" cy="140.56" r="4.00"/>
    <circle cx="17.52" cy="129.99" r="4.00"/>
    <circle cx="94.29" cy="152.55" r="4.00"/>
    <circle cx="56.23" cy="140.25" r="4.00"/>
    <circle cx="28.09" cy="129.76" r="4.00"/>
    <circle cx="66.51" cy="141.01" r="4.00"/>
    <circle cx="38.76" cy="129.50" r="4.00"/>
    <circle cx="104.96" cy="152.26" r="4.00"/>
    <circle cx="77.25" cy="140.72" r="4.00"/>
    <circle cx="21.34" cy="118.94" r="4.00"/>
    <circle cx="49.54" cy="129.21" r="4.00"/>
    <circle cx="32.20" cy="118.72" r="4.00"/>
    <circle cx="60.47" cy="128.88" r="4.00"/>
    <circle cx="88.18" cy="140.38" r="4.00"/>
    <circle cx="43.20" cy="118.48" r="4.00"/>
    <circle cx="70.93" cy="129.97" r="4.00"/>
    <circle cx="25.91" cy="108.19" r="4.00"/>
    <circle cx="98.67" cy="141.45" r="4.00"/>
    <circle cx="54.36" cy="118.23" r="4.00"/>
    <circle cx="37.11" cy="108.02" r="4.00"/>
    <circle cx="82.17" cy="129.72" r="4.00"/>
    <circle cx="65.76" cy="117.97" r="4.00"/>
    <circle cx="48.49" cy="107.85" r="4.00"/>
    <circle cx="31.21" cy="97.77" r="4.00"/>
    <circle cx="110.03" cy="141.21" r="4.00"/>
    <circle cx="76.42" cy="119.41" r="4.00"/>
    <circle cx="93.71" cy="129.46" r="4.00"/>
    <circle cx="42.79" cy="97.70" r="4.00"/>
    <circle cx="60.11" cy="107.70" r="4.00"/>
    <circle cx="37.21" cy="87.74" r="4.00"/>
    <circle cx="104.49" cy="131.03" r="4.00"/>
    <circle cx="54.61" cy="97.68" r="4.00"/>
    <circle cx="88.25" cy="119.32" r="4.00"/>
    <circle cx="72.03" cy="107.59" r="4.00"/>
    <circle cx="49.21" cy="87.83" r="4.00"/>
    <circle cx="66.74" cy="97.71" r="4.00"/>
    <circle cx="82.93" cy="109.45" r="4.00"/>
    <circle cx="43.89" cy="78.15" r="4.00"/>
    <circle cx="100.53" cy="119.30" r="4.00"/>
    <circle cx="116.72" cy="131.06" r="4.00"/>
    <circle cx="61.52" cy="88.01" r="4.00"/>
    <circle cx="79.25" cy="97.84" r="4.00"/>
    <circle cx="56.34" cy="78.47" r="4.00"/>
    <circle cx="95.44" cy="109.64" r="4.00"/>
    <circle cx="111.63" cy="121.47" r="4.00"/>
    <circle cx="51.21" cy="69.03" r="4.00"/>
    <circle cx="74.20" cy="88.32" r="4.00"/>
    <circle cx="90.39" cy="100.18" r="4.00"/>
    <circle cx="69.16" cy="78.93" r="4.00"/>
    <circle cx="64.15" cy="69.65" r="4.00"/>
    <circle cx="108.54" cy="110.04" r="4.00"/>
    <circle cx="87.35" cy="88.81" r="4.00"/>
    <circle cx="59.14" cy="60.45" r="4.00"/>
    <circle cx="82.43" cy="79.60" r="4.00"/>
    <circle cx="103.64" cy="100.82" r="4.00"/>
    <circle cx="124.86" cy="122.04" r="4.00"/>
    <circle cx="77.51" cy="70.48" r="4.00"/>
    <circle cx="98.74" cy="91.70" r="4.00"/>
    <circle cx="72.58" cy="61.42" r="4.00"/>
    <circle cx="119.98" cy="112.93" r="4.00"/>
    <circle cx="67.64" cy="52.42" r="4.00"/>
    <circle cx="96.25" cy="80.57" r="4.00"/>
    <circle cx="91.38" cy="71.62" r="4.00"/>
    <circle cx="117.62" cy="101.84" r="4.00"/>
  </g>
  <g style="fill:#F52AF5" id="Worker'sAlliance">
    <circle cx="86.49" cy="62.71" r="4.00"/>
    <circle cx="81.59" cy="53.85" r="4.00"/>
    <circle cx="112.76" cy="92.94" r="4.00"/>
    <circle cx="76.67" cy="45.01" r="4.00"/>
    <circle cx="107.88" cy="84.09" r="4.00"/>
    <circle cx="134.28" cy="114.35" r="4.00"/>
    <circle cx="105.88" cy="73.20" r="4.00"/>
    <circle cx="100.98" cy="64.43" r="4.00"/>
    <circle cx="129.38" cy="105.58" r="4.00"/>
    <circle cx="96.06" cy="55.69" r="4.00"/>
    <circle cx="91.13" cy="46.95" r="4.00"/>
    <circle cx="86.19" cy="38.22" r="4.00"/>
    <circle cx="127.64" cy="94.80" r="4.00"/>
    <circle cx="122.69" cy="86.11" r="4.00"/>
    <circle cx="117.73" cy="77.42" r="4.00"/>
    <circle cx="96.16" cy="32.11" r="4.00"/>
    <circle cx="101.16" cy="40.77" r="4.00"/>
    <circle cx="106.16" cy="49.43" r="4.00"/>
    <circle cx="111.16" cy="58.10" r="4.00"/>
    <circle cx="116.16" cy="66.76" r="4.00"/>
    <circle cx="139.68" cy="99.54" r="4.00"/>
    <circle cx="144.75" cy="108.18" r="4.00"/>
    <circle cx="106.52" cy="26.70" r="4.00"/>
    <circle cx="128.20" cy="71.76" r="4.00"/>
    <circle cx="111.61" cy="35.35" r="4.00"/>
    <circle cx="133.30" cy="80.40" r="4.00"/>
    <circle cx="116.72" cy="44.00" r="4.00"/>
    <circle cx="138.44" cy="89.05" r="4.00"/>
    <circle cx="121.84" cy="52.65" r="4.00"/>
    <circle cx="126.99" cy="61.30" r="4.00"/>
    <circle cx="117.22" cy="22.02" r="4.00"/>
    <circle cx="122.43" cy="30.71" r="4.00"/>
    <circle cx="127.67" cy="39.42" r="4.00"/>
    <circle cx="139.17" cy="67.16" r="4.00"/>
  </g>
  <g style="fill:#EE8E11" id="Conservative">
    <circle cx="132.95" cy="48.14" r="4.00"/>
    <circle cx="150.68" cy="94.91" r="4.00"/>
    <circle cx="144.48" cy="75.89" r="4.00"/>
    <circle cx="138.28" cy="56.88" r="4.00"/>
    <circle cx="128.23" cy="18.07" r="4.00"/>
    <circle cx="149.86" cy="84.65" r="4.00"/>
    <circle cx="156.04" cy="103.67" r="4.00"/>
    <circle cx="133.57" cy="26.89" r="4.00"/>
    <circle cx="138.96" cy="35.72" r="4.00"/>
    <circle cx="144.41" cy="44.60" r="4.00"/>
    <circle cx="150.55" cy="63.67" r="4.00"/>
    <circle cx="139.48" cy="14.90" r="4.00"/>
    <circle cx="149.94" cy="53.52" r="4.00"/>
    <circle cx="144.95" cy="23.89" r="4.00"/>
    <circle cx="156.08" cy="72.63" r="4.00"/>
    <circle cx="162.20" cy="91.78" r="4.00"/>
    <circle cx="150.50" cy="32.93" r="4.00"/>
    <circle cx="161.73" cy="81.68" r="4.00"/>
    <circle cx="150.92" cy="12.51" r="4.00"/>
    <circle cx="156.13" cy="42.05" r="4.00"/>
    <circle cx="167.88" cy="100.92" r="4.00"/>
    <circle cx="162.21" cy="61.33" r="4.00"/>
    <circle cx="156.53" cy="21.73" r="4.00"/>
    <circle cx="161.86" cy="51.27" r="4.00"/>
    <circle cx="162.22" cy="31.06" r="4.00"/>
    <circle cx="167.97" cy="70.66" r="4.00"/>
    <circle cx="162.50" cy="10.90" r="4.00"/>
    <circle cx="168.02" cy="40.51" r="4.00"/>
    <circle cx="168.23" cy="20.43" r="4.00"/>
    <circle cx="174.03" cy="90.20" r="4.00"/>
    <circle cx="173.88" cy="80.19" r="4.00"/>
    <circle cx="174.05" cy="60.15" r="4.00"/>
    <circle cx="173.94" cy="50.14" r="4.00"/>
    <circle cx="174.06" cy="30.12" r="4.00"/>
    <circle cx="174.16" cy="10.10" r="4.00"/>
    <circle cx="180.00" cy="20.00" r="4.00"/>
    <circle cx="180.00" cy="40.00" r="4.00"/>
    <circle cx="180.00" cy="70.00" r="4.00"/>
    <circle cx="180.00" cy="100.00" r="4.00"/>
    <circle cx="185.84" cy="10.10" r="4.00"/>
    <circle cx="185.94" cy="30.12" r="4.00"/>
    <circle cx="186.06" cy="50.14" r="4.00"/>
    <circle cx="185.95" cy="60.15" r="4.00"/>
    <circle cx="186.12" cy="80.19" r="4.00"/>
    <circle cx="185.97" cy="90.20" r="4.00"/>
    <circle cx="191.77" cy="20.43" r="4.00"/>
    <circle cx="191.98" cy="40.51" r="4.00"/>
    <circle cx="197.50" cy="10.90" r="4.00"/>
    <circle cx="192.03" cy="70.66" r="4.00"/>
    <circle cx="197.78" cy="31.06" r="4.00"/>
    <circle cx="198.14" cy="51.27" r="4.00"/>
    <circle cx="203.47" cy="21.73" r="4.00"/>
    <circle cx="197.79" cy="61.33" r="4.00"/>
    <circle cx="192.12" cy="100.92" r="4.00"/>
    <circle cx="203.87" cy="42.05" r="4.00"/>
    <circle cx="209.08" cy="12.51" r="4.00"/>
    <circle cx="198.27" cy="81.68" r="4.00"/>
    <circle cx="209.50" cy="32.93" r="4.00"/>
    <circle cx="197.80" cy="91.78" r="4.00"/>
    <circle cx="203.92" cy="72.63" r="4.00"/>
    <circle cx="215.05" cy="23.89" r="4.00"/>
    <circle cx="210.06" cy="53.52" r="4.00"/>
    <circle cx="220.52" cy="14.90" r="4.00"/>
    <circle cx="209.45" cy="63.67" r="4.00"/>
    <circle cx="215.59" cy="44.60" r="4.00"/>
  </g>
  <g style="fill:#E30202" id="Pirate">
    <circle cx="221.04" cy="35.72" r="4.00"/>
    <circle cx="226.43" cy="26.89" r="4.00"/>
    <circle cx="203.96" cy="103.67" r="4.00"/>
    <circle cx="210.14" cy="84.65" r="4.00"/>
    <circle cx="231.77" cy="18.07" r="4.00"/>
    <circle cx="221.72" cy="56.88" r="4.00"/>
    <circle cx="215.52" cy="75.89" r="4.00"/>
    <circle cx="209.32" cy="94.91" r="4.00"/>
    <circle cx="227.05" cy="48.14" r="4.00"/>
    <circle cx="220.83" cy="67.16" r="4.00"/>
    <circle cx="232.33" cy="39.42" r="4.00"/>
    <circle cx="237.57" cy="30.71" r="4.00"/>
  </g>
  <g style="fill:#EDFF4A" id="Libertarians">
    <circle cx="242.78" cy="22.02" r="4.00"/>
    <circle cx="233.01" cy="61.30" r="4.00"/>
    <circle cx="238.16" cy="52.65" r="4.00"/>
  </g>
  <g style="fill:#C3467F" id="Agrarian">
    <circle cx="221.56" cy="89.05" r="4.00"/>
    <circle cx="243.28" cy="44.00" r="4.00"/>
    <circle cx="226.70" cy="80.40" r="4.00"/>
    <circle cx="248.39" cy="35.35" r="4.00"/>
    <circle cx="231.80" cy="71.76" r="4.00"/>
    <circle cx="253.48" cy="26.70" r="4.00"/>
    <circle cx="215.25" cy="108.18" r="4.00"/>
    <circle cx="220.32" cy="99.54" r="4.00"/>
    <circle cx="243.84" cy="66.76" r="4.00"/>
    <circle cx="248.84" cy="58.10" r="4.00"/>
    <circle cx="253.84" cy="49.43" r="4.00"/>
    <circle cx="258.84" cy="40.77" r="4.00"/>
    <circle cx="263.84" cy="32.11" r="4.00"/>
    <circle cx="242.27" cy="77.42" r="4.00"/>
    <circle cx="237.31" cy="86.11" r="4.00"/>
    <circle cx="232.36" cy="94.80" r="4.00"/>
    <circle cx="273.81" cy="38.22" r="4.00"/>
    <circle cx="268.87" cy="46.95" r="4.00"/>
    <circle cx="263.94" cy="55.69" r="4.00"/>
    <circle cx="230.62" cy="105.58" r="4.00"/>
    <circle cx="259.02" cy="64.43" r="4.00"/>
    <circle cx="254.12" cy="73.20" r="4.00"/>
    <circle cx="225.72" cy="114.35" r="4.00"/>
    <circle cx="252.12" cy="84.09" r="4.00"/>
    <circle cx="283.33" cy="45.01" r="4.00"/>
    <circle cx="247.24" cy="92.94" r="4.00"/>
    <circle cx="278.41" cy="53.85" r="4.00"/>
    <circle cx="273.51" cy="62.71" r="4.00"/>
    <circle cx="242.38" cy="101.84" r="4.00"/>
    <circle cx="268.62" cy="71.62" r="4.00"/>
    <circle cx="263.75" cy="80.57" r="4.00"/>
    <circle cx="292.36" cy="52.42" r="4.00"/>
    <circle cx="240.02" cy="112.93" r="4.00"/>
    <circle cx="287.42" cy="61.42" r="4.00"/>
    <circle cx="261.26" cy="91.70" r="4.00"/>
    <circle cx="282.49" cy="70.48" r="4.00"/>
    <circle cx="235.14" cy="122.04" r="4.00"/>
    <circle cx="256.36" cy="100.82" r="4.00"/>
    <circle cx="277.57" cy="79.60" r="4.00"/>
    <circle cx="300.86" cy="60.45" r="4.00"/>
    <circle cx="272.65" cy="88.81" r="4.00"/>
    <circle cx="251.46" cy="110.04" r="4.00"/>
    <circle cx="295.85" cy="69.65" r="4.00"/>
    <circle cx="290.84" cy="78.93" r="4.00"/>
    <circle cx="269.61" cy="100.18" r="4.00"/>
    <circle cx="285.80" cy="88.32" r="4.00"/>
    <circle cx="308.79" cy="69.03" r="4.00"/>
    <circle cx="248.37" cy="121.47" r="4.00"/>
    <circle cx="264.56" cy="109.64" r="4.00"/>
    <circle cx="303.66" cy="78.47" r="4.00"/>
    <circle cx="280.75" cy="97.84" r="4.00"/>
    <circle cx="298.48" cy="88.01" r="4.00"/>
    <circle cx="243.28" cy="131.06" r="4.00"/>
    <circle cx="259.47" cy="119.30" r="4.00"/>
    <circle cx="316.11" cy="78.15" r="4.00"/>
    <circle cx="277.07" cy="109.45" r="4.00"/>
    <circle cx="293.26" cy="97.71" r="4.00"/>
    <circle cx="310.79" cy="87.83" r="4.00"/>
    <circle cx="287.97" cy="107.59" r="4.00"/>
    <circle cx="271.75" cy="119.32" r="4.00"/>
    <circle cx="305.39" cy="97.68" r="4.00"/>
    <circle cx="255.51" cy="131.03" r="4.00"/>
    <circle cx="322.79" cy="87.74" r="4.00"/>
    <circle cx="299.89" cy="107.70" r="4.00"/>
    <circle cx="317.21" cy="97.70" r="4.00"/>
    <circle cx="266.29" cy="129.46" r="4.00"/>
    <circle cx="283.58" cy="119.41" r="4.00"/>
    <circle cx="249.97" cy="141.21" r="4.00"/>
    <circle cx="328.79" cy="97.77" r="4.00"/>
    <circle cx="311.51" cy="107.85" r="4.00"/>
    <circle cx="294.24" cy="117.97" r="4.00"/>
    <circle cx="277.83" cy="129.72" r="4.00"/>
    <circle cx="322.89" cy="108.02" r="4.00"/>
    <circle cx="305.64" cy="118.23" r="4.00"/>
    <circle cx="261.33" cy="141.45" r="4.00"/>
    <circle cx="334.09" cy="108.19" r="4.00"/>
    <circle cx="289.07" cy="129.97" r="4.00"/>
    <circle cx="316.80" cy="118.48" r="4.00"/>
    <circle cx="271.82" cy="140.38" r="4.00"/>
    <circle cx="299.53" cy="128.88" r="4.00"/>
    <circle cx="327.80" cy="118.72" r="4.00"/>
    <circle cx="310.46" cy="129.21" r="4.00"/>
    <circle cx="338.66" cy="118.94" r="4.00"/>
    <circle cx="282.75" cy="140.72" r="4.00"/>
    <circle cx="255.04" cy="152.26" r="4.00"/>
    <circle cx="321.24" cy="129.50" r="4.00"/>
    <circle cx="293.49" cy="141.01" r="4.00"/>
    <circle cx="331.91" cy="129.76" r="4.00"/>
    <circle cx="303.77" cy="140.25" r="4.00"/>
    <circle cx="265.71" cy="152.55" r="4.00"/>
    <circle cx="342.48" cy="129.99" r="4.00"/>
    <circle cx="314.33" cy="140.56" r="4.00"/>
    <circle cx="275.97" cy="151.89" r="4.00"/>
    <circle cx="324.79" cy="140.83" r="4.00"/>
    <circle cx="286.43" cy="152.19" r="4.00"/>
    <circle cx="335.19" cy="141.06" r="4.00"/>
    <circle cx="296.79" cy="152.44" r="4.00"/>
    <circle cx="345.53" cy="141.27" r="4.00"/>
    <circle cx="306.94" cy="151.96" r="4.00"/>
  </g>
  <g style="fill:#3FF723" id="Green">
    <circle cx="258.37" cy="163.94" r="4.00"/>
    <circle cx="317.21" cy="152.20" r="4.00"/>
    <circle cx="327.44" cy="152.40" r="4.00"/>
    <circle cx="268.59" cy="164.14" r="4.00"/>
    <circle cx="337.63" cy="152.58" r="4.00"/>
    <circle cx="278.68" cy="163.83" r="4.00"/>
    <circle cx="347.80" cy="152.74" r="4.00"/>
    <circle cx="288.83" cy="164.00" r="4.00"/>
    <circle cx="298.95" cy="164.14" r="4.00"/>
    <circle cx="309.00" cy="163.91" r="4.00"/>
    <circle cx="319.09" cy="164.04" r="4.00"/>
    <circle cx="329.16" cy="164.15" r="4.00"/>
    <circle cx="339.22" cy="164.25" r="4.00"/>
    <circle cx="349.28" cy="164.33" r="4.00"/>
    <circle cx="259.90" cy="176.00" r="4.00"/>
    <circle cx="269.91" cy="176.00" r="4.00"/>
    <circle cx="279.92" cy="176.00" r="4.00"/>
    <circle cx="289.93" cy="176.00" r="4.00"/>
    <circle cx="299.93" cy="176.00" r="4.00"/>
    <circle cx="309.94" cy="176.00" r="4.00"/>
    <circle cx="319.94" cy="176.00" r="4.00"/>
    <circle cx="329.95" cy="176.00" r="4.00"/>
    <circle cx="339.95" cy="176.00" r="4.00"/>
    <circle cx="349.95" cy="176.00" r="4.00"/>
  </g>
</g>
</svg>
